<svg width="140" height="140" viewBox="0 0 140 140" fill="none" xmlns="http://www.w3.org/2000/svg">
<circle cx="70" cy="70" r="68.5" stroke="#CACACA" stroke-opacity="0.5" stroke-width="3"/>
<path fill-rule="evenodd" clip-rule="evenodd" d="M92.4 133.164C118.388 123.947 137 99.1473 137 70C137 32.9969 107.003 3 70 3C32.9969 3 3 32.9969 3 70H0C0 31.3401 31.3401 0 70 0C108.66 0 140 31.3401 140 70C140 100.826 120.074 126.998 92.4 136.339V133.164Z" fill="#F59019"/>
<path d="M59.4336 59.1562L52.3672 75H50.0938L57.1367 59.7188H47.9023V57.9375H59.4336V59.1562ZM65.7669 65.4141H67.3958C68.4192 65.3984 69.2239 65.1289 69.8098 64.6055C70.3958 64.082 70.6888 63.375 70.6888 62.4844C70.6888 60.4844 69.6927 59.4844 67.7005 59.4844C66.763 59.4844 66.013 59.7539 65.4505 60.293C64.8958 60.8242 64.6184 61.5312 64.6184 62.4141H62.4505C62.4505 61.0625 62.9427 59.9414 63.927 59.0508C64.9192 58.1523 66.177 57.7031 67.7005 57.7031C69.3098 57.7031 70.5716 58.1289 71.4856 58.9805C72.3997 59.832 72.8567 61.0156 72.8567 62.5312C72.8567 63.2734 72.6145 63.9922 72.1302 64.6875C71.6536 65.3828 71.0013 65.9023 70.1731 66.2461C71.1106 66.543 71.8333 67.0352 72.3411 67.7227C72.8567 68.4102 73.1145 69.25 73.1145 70.2422C73.1145 71.7734 72.6145 72.9883 71.6145 73.8867C70.6145 74.7852 69.3138 75.2344 67.7122 75.2344C66.1106 75.2344 64.8059 74.8008 63.7981 73.9336C62.7981 73.0664 62.2981 71.9219 62.2981 70.5H64.4778C64.4778 71.3984 64.7708 72.1172 65.3567 72.6562C65.9427 73.1953 66.7278 73.4648 67.7122 73.4648C68.7591 73.4648 69.5598 73.1914 70.1145 72.6445C70.6692 72.0977 70.9466 71.3125 70.9466 70.2891C70.9466 69.2969 70.6419 68.5352 70.0325 68.0039C69.4231 67.4727 68.5442 67.1992 67.3958 67.1836H65.7669V65.4141ZM76.6236 61.2188C76.6236 60.1953 76.9478 59.3516 77.5963 58.6875C78.2525 58.0234 79.0923 57.6914 80.1158 57.6914C81.1548 57.6914 81.9947 58.0273 82.6353 58.6992C83.2838 59.3633 83.608 60.2266 83.608 61.2891V62.1211C83.608 63.1523 83.2798 63.9961 82.6236 64.6523C81.9752 65.3008 81.147 65.625 80.1392 65.625C79.1236 65.625 78.2838 65.3008 77.6197 64.6523C76.9556 63.9961 76.6236 63.125 76.6236 62.0391V61.2188ZM78.2408 62.1211C78.2408 62.7305 78.4127 63.2344 78.7564 63.6328C79.1002 64.0234 79.5611 64.2188 80.1392 64.2188C80.6939 64.2188 81.1392 64.0273 81.4752 63.6445C81.8189 63.2617 81.9908 62.7383 81.9908 62.0742V61.2188C81.9908 60.6094 81.8228 60.1055 81.4869 59.707C81.1509 59.3086 80.6939 59.1094 80.1158 59.1094C79.5377 59.1094 79.0806 59.3086 78.7447 59.707C78.4088 60.1055 78.2408 60.625 78.2408 61.2656V62.1211ZM84.9322 70.8164C84.9322 69.793 85.2564 68.9531 85.9048 68.2969C86.5611 67.6328 87.4009 67.3008 88.4244 67.3008C89.4478 67.3008 90.2877 67.6289 90.9439 68.2852C91.6002 68.9414 91.9283 69.8125 91.9283 70.8984V71.7305C91.9283 72.7539 91.6002 73.5977 90.9439 74.2617C90.2955 74.918 89.4634 75.2461 88.4478 75.2461C87.4322 75.2461 86.5923 74.9219 85.9283 74.2734C85.2642 73.6172 84.9322 72.7461 84.9322 71.6602V70.8164ZM86.5494 71.7305C86.5494 72.3477 86.7213 72.8555 87.065 73.2539C87.4088 73.6445 87.8697 73.8398 88.4478 73.8398C89.0103 73.8398 89.4595 73.6484 89.7955 73.2656C90.1314 72.875 90.2994 72.3477 90.2994 71.6836V70.8164C90.2994 70.1992 90.1275 69.6953 89.7838 69.3047C89.4478 68.9141 88.9947 68.7188 88.4244 68.7188C87.8697 68.7188 87.4166 68.9141 87.065 69.3047C86.7213 69.6875 86.5494 70.207 86.5494 70.8633V71.7305ZM80.6314 73.7109L79.4009 72.9375L87.733 59.6016L88.9634 60.375L80.6314 73.7109Z" fill="#2759AB"/>
</svg>
