<svg width="141" height="139" viewBox="0 0 141 139" fill="none" xmlns="http://www.w3.org/2000/svg">
<path d="M139.48 69.9309C139.48 107.23 108.835 137.5 70.9899 137.5C33.1452 137.5 2.5 107.23 2.5 69.9309C2.5 32.6322 33.1452 2.36182 70.9899 2.36182C108.835 2.36182 139.48 32.6322 139.48 69.9309Z" stroke="#CACACA" stroke-opacity="0.5" stroke-width="3"/>
<path fill-rule="evenodd" clip-rule="evenodd" d="M136.176 58.8091C141.914 94.8205 116.984 128.67 80.401 134.347C71.7951 135.683 63.318 135.339 55.3106 133.564V136.629C63.4867 138.362 72.1178 138.668 80.8732 137.31C119.058 131.384 145.145 96.0317 139.14 58.349C133.135 20.6664 97.3119 -5.07744 59.1269 0.848632C20.9418 6.77471 -5.14517 42.1266 0.859908 79.8092C2.16418 87.9937 4.87507 95.615 8.71127 102.471H12.1715C8.0574 95.543 5.16401 87.7552 3.82442 79.3492C-1.91432 43.3378 23.0159 9.48872 59.599 3.81125C96.1821 -1.86622 130.437 22.7977 136.176 58.8091Z" fill="#F59019"/>
<path d="M67.7656 63.3906C67.7656 64.2422 67.5391 65 67.0859 65.6641C66.6406 66.3281 66.0352 66.8477 65.2695 67.2227C66.1602 67.6055 66.8633 68.1641 67.3789 68.8984C67.9023 69.6328 68.1641 70.4648 68.1641 71.3945C68.1641 72.8711 67.6641 74.0469 66.6641 74.9219C65.6719 75.7969 64.3633 76.2344 62.7383 76.2344C61.0977 76.2344 59.7812 75.7969 58.7891 74.9219C57.8047 74.0391 57.3125 72.8633 57.3125 71.3945C57.3125 70.4727 57.5625 69.6406 58.0625 68.8984C58.5703 68.1562 59.2695 67.5938 60.1602 67.2109C59.4023 66.8359 58.8047 66.3164 58.3672 65.6523C57.9297 64.9883 57.7109 64.2344 57.7109 63.3906C57.7109 61.9531 58.1719 60.8125 59.0938 59.9688C60.0156 59.125 61.2305 58.7031 62.7383 58.7031C64.2383 58.7031 65.4492 59.125 66.3711 59.9688C67.3008 60.8125 67.7656 61.9531 67.7656 63.3906ZM65.9961 71.3477C65.9961 70.3945 65.6914 69.6172 65.082 69.0156C64.4805 68.4141 63.6914 68.1133 62.7148 68.1133C61.7383 68.1133 60.9531 68.4102 60.3594 69.0039C59.7734 69.5977 59.4805 70.3789 59.4805 71.3477C59.4805 72.3164 59.7656 73.0781 60.3359 73.6328C60.9141 74.1875 61.7148 74.4648 62.7383 74.4648C63.7539 74.4648 64.5508 74.1875 65.1289 73.6328C65.707 73.0703 65.9961 72.3086 65.9961 71.3477ZM62.7383 60.4844C61.8867 60.4844 61.1953 60.75 60.6641 61.2812C60.1406 61.8047 59.8789 62.5195 59.8789 63.4258C59.8789 64.293 60.1367 64.9961 60.6523 65.5352C61.1758 66.0664 61.8711 66.332 62.7383 66.332C63.6055 66.332 64.2969 66.0664 64.8125 65.5352C65.3359 64.9961 65.5977 64.293 65.5977 63.4258C65.5977 62.5586 65.3281 61.8516 64.7891 61.3047C64.25 60.7578 63.5664 60.4844 62.7383 60.4844ZM74.7669 66.4141H76.3958C77.4192 66.3984 78.2239 66.1289 78.8098 65.6055C79.3958 65.082 79.6888 64.375 79.6888 63.4844C79.6888 61.4844 78.6927 60.4844 76.7005 60.4844C75.763 60.4844 75.013 60.7539 74.4505 61.293C73.8958 61.8242 73.6184 62.5312 73.6184 63.4141H71.4505C71.4505 62.0625 71.9427 60.9414 72.927 60.0508C73.9192 59.1523 75.177 58.7031 76.7005 58.7031C78.3098 58.7031 79.5716 59.1289 80.4856 59.9805C81.3997 60.832 81.8567 62.0156 81.8567 63.5312C81.8567 64.2734 81.6145 64.9922 81.1302 65.6875C80.6536 66.3828 80.0013 66.9023 79.1731 67.2461C80.1106 67.543 80.8333 68.0352 81.3411 68.7227C81.8567 69.4102 82.1145 70.25 82.1145 71.2422C82.1145 72.7734 81.6145 73.9883 80.6145 74.8867C79.6145 75.7852 78.3138 76.2344 76.7122 76.2344C75.1106 76.2344 73.8059 75.8008 72.7981 74.9336C71.7981 74.0664 71.2981 72.9219 71.2981 71.5H73.4778C73.4778 72.3984 73.7708 73.1172 74.3567 73.6562C74.9427 74.1953 75.7278 74.4648 76.7122 74.4648C77.7591 74.4648 78.5598 74.1914 79.1145 73.6445C79.6692 73.0977 79.9466 72.3125 79.9466 71.2891C79.9466 70.2969 79.6419 69.5352 79.0325 69.0039C78.4231 68.4727 77.5442 68.1992 76.3958 68.1836H74.7669V66.4141ZM85.6236 62.2188C85.6236 61.1953 85.9478 60.3516 86.5963 59.6875C87.2525 59.0234 88.0923 58.6914 89.1158 58.6914C90.1548 58.6914 90.9947 59.0273 91.6353 59.6992C92.2838 60.3633 92.608 61.2266 92.608 62.2891V63.1211C92.608 64.1523 92.2798 64.9961 91.6236 65.6523C90.9752 66.3008 90.147 66.625 89.1392 66.625C88.1236 66.625 87.2838 66.3008 86.6197 65.6523C85.9556 64.9961 85.6236 64.125 85.6236 63.0391V62.2188ZM87.2408 63.1211C87.2408 63.7305 87.4127 64.2344 87.7564 64.6328C88.1002 65.0234 88.5611 65.2188 89.1392 65.2188C89.6939 65.2188 90.1392 65.0273 90.4752 64.6445C90.8189 64.2617 90.9908 63.7383 90.9908 63.0742V62.2188C90.9908 61.6094 90.8228 61.1055 90.4869 60.707C90.1509 60.3086 89.6939 60.1094 89.1158 60.1094C88.5377 60.1094 88.0806 60.3086 87.7447 60.707C87.4088 61.1055 87.2408 61.625 87.2408 62.2656V63.1211ZM93.9322 71.8164C93.9322 70.793 94.2564 69.9531 94.9048 69.2969C95.5611 68.6328 96.4009 68.3008 97.4244 68.3008C98.4478 68.3008 99.2877 68.6289 99.9439 69.2852C100.6 69.9414 100.928 70.8125 100.928 71.8984V72.7305C100.928 73.7539 100.6 74.5977 99.9439 75.2617C99.2955 75.918 98.4634 76.2461 97.4478 76.2461C96.4322 76.2461 95.5923 75.9219 94.9283 75.2734C94.2642 74.6172 93.9322 73.7461 93.9322 72.6602V71.8164ZM95.5494 72.7305C95.5494 73.3477 95.7213 73.8555 96.065 74.2539C96.4088 74.6445 96.8697 74.8398 97.4478 74.8398C98.0103 74.8398 98.4595 74.6484 98.7955 74.2656C99.1314 73.875 99.2994 73.3477 99.2994 72.6836V71.8164C99.2994 71.1992 99.1275 70.6953 98.7838 70.3047C98.4478 69.9141 97.9947 69.7188 97.4244 69.7188C96.8697 69.7188 96.4166 69.9141 96.065 70.3047C95.7213 70.6875 95.5494 71.207 95.5494 71.8633V72.7305ZM89.6314 74.7109L88.4009 73.9375L96.733 60.6016L97.9634 61.375L89.6314 74.7109Z" fill="#2759AB"/>
</svg>
