<svg width="17" height="18" viewBox="0 0 17 18" fill="none" xmlns="http://www.w3.org/2000/svg">
<path d="M16.3536 4.35355C16.5488 4.15829 16.5488 3.84171 16.3536 3.64645L13.1716 0.464466C12.9763 0.269204 12.6597 0.269204 12.4645 0.464466C12.2692 0.659728 12.2692 0.976311 12.4645 1.17157L15.2929 4L12.4645 6.82843C12.2692 7.02369 12.2692 7.34027 12.4645 7.53553C12.6597 7.7308 12.9763 7.7308 13.1716 7.53553L16.3536 4.35355ZM5.70588 4.5H16V3.5H5.70588V4.5ZM1.5 8.70588C1.5 6.38304 3.38304 4.5 5.70588 4.5V3.5C2.83075 3.5 0.5 5.83075 0.5 8.70588H1.5Z" fill="black" fill-opacity="0.5"/>
<path d="M0.646446 13.6464C0.451184 13.8417 0.451184 14.1583 0.646446 14.3536L3.82843 17.5355C4.02369 17.7308 4.34027 17.7308 4.53553 17.5355C4.7308 17.3403 4.7308 17.0237 4.53553 16.8284L1.70711 14L4.53553 11.1716C4.7308 10.9763 4.7308 10.6597 4.53553 10.4645C4.34027 10.2692 4.02369 10.2692 3.82843 10.4645L0.646446 13.6464ZM10.7059 13.5L1 13.5V14.5L10.7059 14.5V13.5ZM15.5 8.70588C15.5 11.3536 13.3536 13.5 10.7059 13.5V14.5C13.9059 14.5 16.5 11.9059 16.5 8.70588H15.5Z" fill="black" fill-opacity="0.5"/>
</svg>
