<svg width="40" height="40" viewBox="0 0 40 40" fill="none" xmlns="http://www.w3.org/2000/svg">
<circle cx="20" cy="20" r="20" fill="#FED700"/>
<circle cx="18.6334" cy="25.8334" r="1.5" fill="white"/>
<circle cx="24.6334" cy="25.8334" r="1.5" fill="white"/>
<path d="M8.79999 12L12.9148 13.8853C13.3696 14.0937 13.7298 14.465 13.9243 14.9259L16.3937 20.7776C16.7064 21.5184 17.4323 22 18.2364 22H25.2186C26.0268 22 26.7555 21.5137 27.0656 20.7674L28.8 16.593" stroke="white"/>
<path d="M21.1131 19.0202C21.3084 19.2155 21.625 19.2155 21.8202 19.0202L25.0022 15.8382C25.1975 15.643 25.1975 15.3264 25.0022 15.1311C24.8069 14.9359 24.4904 14.9359 24.2951 15.1311L21.4667 17.9596L18.6382 15.1311C18.443 14.9359 18.1264 14.9359 17.9311 15.1311C17.7359 15.3264 17.7359 15.643 17.9311 15.8382L21.1131 19.0202ZM20.9667 12V18.6667H21.9667V12H20.9667Z" fill="white"/>
</svg>
