<svg width="40" height="44" viewBox="0 0 40 44" fill="none" xmlns="http://www.w3.org/2000/svg">
<path d="M14.7894 21.194C14.3467 21.194 13.9121 21.146 13.4854 21.05C13.0587 20.9487 12.6694 20.8234 12.3174 20.674C11.9654 20.5194 11.6774 20.362 11.4534 20.202C11.4587 20.0527 11.4907 19.8927 11.5494 19.722C11.6134 19.5514 11.6934 19.394 11.7894 19.25C11.8907 19.1007 11.9974 18.9914 12.1094 18.922C12.4721 19.1567 12.8907 19.3647 13.3654 19.546C13.8401 19.7274 14.3094 19.818 14.7734 19.818C15.2214 19.8234 15.5921 19.73 15.8854 19.538C16.1841 19.346 16.3361 19.0687 16.3414 18.706C16.3467 18.4127 16.2587 18.154 16.0774 17.93C15.8961 17.7007 15.6054 17.5167 15.2054 17.378L13.6534 16.826C13.0721 16.618 12.6081 16.3247 12.2614 15.946C11.9201 15.5674 11.7494 15.0874 11.7494 14.506C11.7494 14.0047 11.8747 13.5567 12.1254 13.162C12.3814 12.7674 12.7361 12.458 13.1894 12.234C13.6427 12.0047 14.1681 11.89 14.7654 11.89C15.3681 11.89 15.9227 11.962 16.4294 12.106C16.9414 12.2447 17.3894 12.418 17.7734 12.626C17.7734 12.8554 17.7174 13.09 17.6054 13.33C17.4987 13.57 17.3601 13.7647 17.1894 13.914C16.8161 13.7167 16.4347 13.562 16.0454 13.45C15.6561 13.3327 15.2694 13.274 14.8854 13.274C14.4481 13.274 14.0987 13.37 13.8374 13.562C13.5761 13.7487 13.4454 14.0047 13.4454 14.33C13.4454 14.6394 13.5467 14.874 13.7494 15.034C13.9521 15.1887 14.2187 15.3247 14.5494 15.442L16.0134 15.978C16.6374 16.202 17.1334 16.5274 17.5014 16.954C17.8747 17.3807 18.0614 17.9354 18.0614 18.618C18.0614 19.1194 17.9281 19.5647 17.6614 19.954C17.3947 20.3434 17.0161 20.6474 16.5254 20.866C16.0347 21.0847 15.4561 21.194 14.7894 21.194ZM14.6934 22.634C14.4161 22.634 14.1947 22.6127 14.0294 22.57V20.738H15.3494V22.57C15.2694 22.5914 15.1707 22.6074 15.0534 22.618C14.9361 22.6287 14.8161 22.634 14.6934 22.634ZM14.1894 12.402V10.522C14.2801 10.5007 14.3841 10.4847 14.5014 10.474C14.6241 10.4634 14.7414 10.458 14.8534 10.458C14.9707 10.458 15.0881 10.4634 15.2054 10.474C15.3227 10.4847 15.4267 10.5007 15.5174 10.522V12.402H14.1894Z" fill="black"/>
<line x1="11.4914" y1="26.0548" x2="27.8777" y2="26.0548" stroke="black"/>
<line x1="11.4914" y1="29.2522" x2="27.8777" y2="29.2522" stroke="black"/>
<line x1="11.4914" y1="32.7159" x2="27.8777" y2="32.7159" stroke="black"/>
<path d="M2.44216 2.77716C2.44216 2.50102 2.66602 2.27716 2.94216 2.27716H37.5931V41.9395C37.5931 42.2156 37.3693 42.4395 37.0931 42.4395H2.44216V2.77716Z" stroke="#E54086" stroke-width="3"/>
</svg>
