<svg width="47" height="33" viewBox="0 0 47 33" fill="none" xmlns="http://www.w3.org/2000/svg">
<path d="M45.2021 17.6273C45.1979 17.64 45.1929 17.6546 45.187 17.671C45.1411 17.7978 45.0594 17.9802 44.9293 18.2188C44.6694 18.6951 44.263 19.3102 43.7097 20.0222C42.6059 21.4427 40.9853 23.1624 38.969 24.8212C34.9112 28.1597 29.44 31.1006 23.5166 31.1006C17.5933 31.1006 12.1221 28.1597 8.06426 24.8212C6.04804 23.1624 4.42741 21.4427 3.3236 20.0222C2.77034 19.3102 2.3639 18.6951 2.10402 18.2188C1.97385 17.9802 1.89218 17.7978 1.84634 17.671C1.84039 17.6546 1.8354 17.64 1.83123 17.6273C1.83718 17.6072 1.84495 17.5825 1.85505 17.553C1.90556 17.4052 1.99268 17.1981 2.12688 16.9317C2.39462 16.4003 2.80897 15.7131 3.3668 14.9185C4.48046 13.3323 6.10942 11.3985 8.12993 9.52917C12.2082 5.75595 17.6576 2.44666 23.5166 2.44666C29.3757 2.44666 34.8251 5.75595 38.9034 9.52917C40.9239 11.3985 42.5528 13.3323 43.6665 14.9185C44.2243 15.7131 44.6387 16.4003 44.9064 16.9317C45.0406 17.1981 45.1277 17.4052 45.1783 17.553C45.1883 17.5825 45.1961 17.6072 45.2021 17.6273Z" stroke="#E54086" stroke-width="3"/>
<circle cx="23.5167" cy="17.7736" r="6.34157" stroke="black" stroke-width="3"/>
</svg>
