<svg width="40" height="40" viewBox="0 0 40 40" fill="none" xmlns="http://www.w3.org/2000/svg">
<ellipse cx="20.6649" cy="20.6095" rx="0.611386" ry="0.612161" fill="#F59019"/>
<path fill-rule="evenodd" clip-rule="evenodd" d="M25.3268 40C33.8047 37.5291 40.0001 29.6916 40.0001 20.4053C40.0001 9.13579 30.8758 0 19.6205 0C12.4604 0 6.16264 3.69724 2.52777 9.28904C6.08291 4.12302 12.0473 0.73457 18.8053 0.73457C29.7005 0.73457 38.5327 9.54147 38.5327 20.4053C38.5327 28.9903 33.0172 36.2908 25.3268 38.9758V40Z" fill="#F59019"/>
<path d="M31.9444 8.46622L20.6724 20.1042L20.9258 20.9625L31.9444 8.46622Z" fill="#F59019" stroke="#F59019" stroke-linecap="round" stroke-linejoin="round"/>
<line x1="19.4937" y1="0.816162" x2="19.4937" y2="2.77508" stroke="white"/>
<line x1="19.4937" y1="37.5458" x2="19.4937" y2="39.5047" stroke="white"/>
<line x1="36.3571" y1="19.6604" x2="38.3135" y2="19.6604" stroke="white"/>
<line y1="19.334" x2="1.95643" y2="19.334" stroke="white"/>
<line y1="-0.5" x2="1.95705" y2="-0.5" transform="matrix(0.865751 -0.500475 0.499525 0.866299 34.6452 12.08)" stroke="white"/>
<line y1="-0.5" x2="1.95829" y2="-0.5" transform="matrix(0.499525 -0.866299 0.865751 0.500475 28.2373 5.50073)" stroke="white"/>
<line y1="-0.5" x2="1.95717" y2="-0.5" transform="matrix(0.838458 0.544967 0.456337 -0.889807 34.6132 27.9962)" stroke="white"/>
<line y1="-0.5" x2="1.9584" y2="-0.5" transform="matrix(0.456337 0.889807 0.838458 -0.544967 28.2053 35.3936)" stroke="white"/>
<line x1="36.3571" y1="19.6604" x2="36.7647" y2="19.6604" stroke="white"/>
<line y1="-0.5" x2="2.06982" y2="-0.5" transform="matrix(-0.880951 -0.473208 -0.527279 0.849692 4.2374 11.7854)" stroke="white"/>
<line y1="-0.5" x2="1.99657" y2="-0.5" transform="matrix(-0.527279 -0.849692 -0.880951 0.473208 11.1336 5.2063)" stroke="white"/>
<line y1="-0.5" x2="2.06313" y2="-0.5" transform="matrix(-0.855998 0.516979 -0.483211 -0.875504 4.27182 27.7017)" stroke="white"/>
<line y1="-0.5" x2="1.99039" y2="-0.5" transform="matrix(-0.483211 0.875504 -0.855998 -0.516979 11.168 35.099)" stroke="white"/>
<line y1="-0.5" x2="0.40759" y2="-0.5" transform="matrix(-1 0 0 1 2.36404 19.866)" stroke="white"/>
</svg>
