<svg width="43" height="41" viewBox="0 0 43 41" fill="none" xmlns="http://www.w3.org/2000/svg">
<path fill-rule="evenodd" clip-rule="evenodd" d="M18.3694 1C9.88113 1 3 7.88113 3 16.3694V36.9579C4.0536 35.6719 6.1292 35.777 7.01582 37.2731C7.58208 38.2287 8.96507 38.2287 9.53133 37.2731C10.4849 35.664 12.8138 35.664 13.7674 37.2731C14.3337 38.2287 15.7167 38.2287 16.2829 37.2731C17.2365 35.664 19.5654 35.664 20.519 37.2731C21.0057 38.0943 22.0955 38.2098 22.7518 37.6195C22.8915 37.9316 23.0461 38.2355 23.2147 38.5305C22.0994 39.333 20.4296 39.0838 19.6587 37.7829C19.0925 36.8274 17.7095 36.8274 17.1432 37.7829C16.1896 39.3921 13.8607 39.3921 12.9071 37.7829C12.3409 36.8274 10.9579 36.8274 10.3916 37.7829C9.43804 39.3921 7.10911 39.3921 6.15553 37.7829C5.58926 36.8274 4.20628 36.8274 3.64001 37.7829L2.9617 38.9276C2.82092 39.1651 2.51421 39.2436 2.27665 39.1028C2.19209 39.0527 2.12768 38.9815 2.08615 38.9C2.03178 38.82 2 38.7234 2 38.6193V16.3694C2 7.32885 9.32884 0 18.3694 0C27.41 0 34.7388 7.32884 34.7388 16.3694V23.1278C34.4111 23.0527 34.0775 22.9928 33.7388 22.9489V16.3694C33.7388 7.88112 26.8577 1 18.3694 1Z" fill="#F59019"/>
<ellipse cx="34.5422" cy="32.529" rx="7.5586" ry="7.57064" fill="#F59019"/>
<path d="M28.8043 34.3528V34.3528C30.4794 36.0306 33.1981 36.0306 34.8732 34.3528L40.0042 29.2136" stroke="white" stroke-linecap="round" stroke-linejoin="round"/>
<path d="M16.0791 11.9678C16.0791 13.0257 15.8984 13.8118 15.5371 14.3262C15.1758 14.8405 14.611 15.0977 13.8428 15.0977C13.0843 15.0977 12.5228 14.847 12.1582 14.3457C11.7936 13.8411 11.6048 13.0892 11.5918 12.0898V10.8838C11.5918 9.83887 11.7725 9.0625 12.1338 8.55469C12.4951 8.04688 13.0615 7.79297 13.833 7.79297C14.598 7.79297 15.1611 8.03874 15.5225 8.53027C15.8838 9.01855 16.0693 9.77376 16.0791 10.7959V11.9678ZM15.1758 10.7324C15.1758 9.96745 15.0684 9.41081 14.8535 9.0625C14.6387 8.71094 14.2985 8.53516 13.833 8.53516C13.3708 8.53516 13.0339 8.70931 12.8223 9.05762C12.6107 9.40592 12.5016 9.94141 12.4951 10.6641V12.1094C12.4951 12.8776 12.6058 13.4456 12.8271 13.8135C13.0518 14.1781 13.3903 14.3604 13.8428 14.3604C14.2887 14.3604 14.6191 14.1878 14.834 13.8428C15.0521 13.4977 15.166 12.9541 15.1758 12.2119V10.7324ZM17.1582 9.25781C17.1582 8.83138 17.2933 8.47982 17.5635 8.20312C17.8369 7.92643 18.1868 7.78809 18.6133 7.78809C19.0462 7.78809 19.3962 7.92806 19.6631 8.20801C19.9333 8.4847 20.0684 8.8444 20.0684 9.28711V9.63379C20.0684 10.0635 19.9316 10.415 19.6582 10.6885C19.388 10.9587 19.043 11.0938 18.623 11.0938C18.1999 11.0938 17.8499 10.9587 17.5732 10.6885C17.2965 10.415 17.1582 10.0521 17.1582 9.59961V9.25781ZM17.832 9.63379C17.832 9.8877 17.9036 10.0977 18.0469 10.2637C18.1901 10.4264 18.3822 10.5078 18.623 10.5078C18.8542 10.5078 19.0397 10.4281 19.1797 10.2686C19.3229 10.109 19.3945 9.89095 19.3945 9.61426V9.25781C19.3945 9.00391 19.3245 8.79395 19.1846 8.62793C19.0446 8.46191 18.8542 8.37891 18.6133 8.37891C18.3724 8.37891 18.182 8.46191 18.042 8.62793C17.902 8.79395 17.832 9.01042 17.832 9.27734V9.63379ZM20.6201 13.2568C20.6201 12.8304 20.7552 12.4805 21.0254 12.207C21.2988 11.9303 21.6488 11.792 22.0752 11.792C22.5016 11.792 22.8516 11.9287 23.125 12.2021C23.3984 12.4756 23.5352 12.8385 23.5352 13.291V13.6377C23.5352 14.0641 23.3984 14.4157 23.125 14.6924C22.8548 14.9658 22.5081 15.1025 22.085 15.1025C21.6618 15.1025 21.3118 14.9674 21.0352 14.6973C20.7585 14.4238 20.6201 14.0609 20.6201 13.6084V13.2568ZM21.2939 13.6377C21.2939 13.8949 21.3656 14.1064 21.5088 14.2725C21.652 14.4352 21.8441 14.5166 22.085 14.5166C22.3193 14.5166 22.5065 14.4368 22.6465 14.2773C22.7865 14.1146 22.8564 13.8949 22.8564 13.6182V13.2568C22.8564 12.9997 22.7848 12.7897 22.6416 12.627C22.5016 12.4642 22.3128 12.3828 22.0752 12.3828C21.8441 12.3828 21.6553 12.4642 21.5088 12.627C21.3656 12.7865 21.2939 13.0029 21.2939 13.2764V13.6377ZM18.8281 14.4629L18.3154 14.1406L21.7871 8.58398L22.2998 8.90625L18.8281 14.4629ZM11.6553 23.8604H8.67188V27H7.73438V19.8906H12.1387V20.6621H8.67188V23.0938H11.6553V23.8604ZM15.2051 27.0977C14.4889 27.0977 13.9062 26.8633 13.457 26.3945C13.0078 25.9225 12.7832 25.2926 12.7832 24.5049V24.3389C12.7832 23.8148 12.8825 23.3477 13.0811 22.9375C13.2829 22.5241 13.5628 22.2018 13.9209 21.9707C14.2822 21.7363 14.6729 21.6191 15.0928 21.6191C15.7796 21.6191 16.3135 21.8454 16.6943 22.2979C17.0752 22.7503 17.2656 23.3981 17.2656 24.2412V24.6172H13.6865C13.6995 25.138 13.8509 25.5596 14.1406 25.8818C14.4336 26.2008 14.8047 26.3604 15.2539 26.3604C15.5729 26.3604 15.8431 26.2952 16.0645 26.165C16.2858 26.0348 16.4795 25.8623 16.6455 25.6475L17.1973 26.0771C16.7546 26.7575 16.0905 27.0977 15.2051 27.0977ZM15.0928 22.3613C14.7282 22.3613 14.4222 22.4948 14.1748 22.7617C13.9274 23.0254 13.7744 23.3965 13.7158 23.875H16.3623V23.8066C16.3363 23.3477 16.2126 22.9928 15.9912 22.7422C15.7699 22.4883 15.4704 22.3613 15.0928 22.3613ZM20.5078 27.0977C19.7917 27.0977 19.209 26.8633 18.7598 26.3945C18.3105 25.9225 18.0859 25.2926 18.0859 24.5049V24.3389C18.0859 23.8148 18.1852 23.3477 18.3838 22.9375C18.5856 22.5241 18.8656 22.2018 19.2236 21.9707C19.585 21.7363 19.9756 21.6191 20.3955 21.6191C21.0824 21.6191 21.6162 21.8454 21.9971 22.2979C22.3779 22.7503 22.5684 23.3981 22.5684 24.2412V24.6172H18.9893C19.0023 25.138 19.1536 25.5596 19.4434 25.8818C19.7363 26.2008 20.1074 26.3604 20.5566 26.3604C20.8757 26.3604 21.1458 26.2952 21.3672 26.165C21.5885 26.0348 21.7822 25.8623 21.9482 25.6475L22.5 26.0771C22.0573 26.7575 21.3932 27.0977 20.5078 27.0977ZM20.3955 22.3613C20.0309 22.3613 19.7249 22.4948 19.4775 22.7617C19.2301 23.0254 19.0771 23.3965 19.0186 23.875H21.665V23.8066C21.639 23.3477 21.5153 22.9928 21.2939 22.7422C21.0726 22.4883 20.7731 22.3613 20.3955 22.3613ZM26.6943 25.5986C26.6943 25.3545 26.6016 25.1657 26.416 25.0322C26.2337 24.8955 25.9131 24.7783 25.4541 24.6807C24.9984 24.583 24.6354 24.4658 24.3652 24.3291C24.0983 24.1924 23.8997 24.0296 23.7695 23.8408C23.6426 23.652 23.5791 23.4274 23.5791 23.167C23.5791 22.734 23.7614 22.3678 24.126 22.0684C24.4938 21.7689 24.9626 21.6191 25.5322 21.6191C26.1312 21.6191 26.6162 21.7738 26.9873 22.083C27.3617 22.3923 27.5488 22.7878 27.5488 23.2695H26.6406C26.6406 23.0221 26.5348 22.8089 26.3232 22.6299C26.1149 22.4508 25.8512 22.3613 25.5322 22.3613C25.2035 22.3613 24.9463 22.4329 24.7607 22.5762C24.5752 22.7194 24.4824 22.9066 24.4824 23.1377C24.4824 23.3558 24.5687 23.5202 24.7412 23.6309C24.9137 23.7415 25.2246 23.8473 25.6738 23.9482C26.1263 24.0492 26.4925 24.1696 26.7725 24.3096C27.0524 24.4495 27.2591 24.6188 27.3926 24.8174C27.5293 25.0127 27.5977 25.252 27.5977 25.5352C27.5977 26.0072 27.4089 26.3864 27.0312 26.6729C26.6536 26.9561 26.1637 27.0977 25.5615 27.0977C25.1383 27.0977 24.764 27.0228 24.4385 26.873C24.113 26.7233 23.8574 26.515 23.6719 26.248C23.4896 25.9779 23.3984 25.6865 23.3984 25.374H24.3018C24.318 25.6768 24.4385 25.9176 24.6631 26.0967C24.891 26.2725 25.1904 26.3604 25.5615 26.3604C25.9033 26.3604 26.1768 26.292 26.3818 26.1553C26.5902 26.0153 26.6943 25.8298 26.6943 25.5986Z" fill="white"/>
</svg>
