<svg width="42" height="41" viewBox="0 0 42 41" fill="none" xmlns="http://www.w3.org/2000/svg">
<path d="M20.323 8.98657H24.323L27.0671 12.517H25.6253L26.4625 20.4157H25.6253L27.0671 29.9898H24.323L25.6253 41.0001L18.416 24.5445H21.6253L19.3928 12.517L20.323 8.98657Z" fill="#F59019"/>
<path d="M2.90698 1H6.90695L9.65112 4.53046H8.20927L9.04648 12.4291H8.20927L9.65112 22.0033H6.90695L8.20927 33.0135L1.00001 16.558H4.20929L1.97675 4.53046L2.90698 1Z" stroke="#F59019" stroke-linecap="round" stroke-linejoin="round"/>
<path d="M34.2559 4.75745H38.2558L41 8.28791H39.5581L40.3954 16.1866H39.5581L41 25.7607H38.2558L39.5581 36.771L32.3489 20.3154H35.5582L33.3256 8.28791L34.2559 4.75745Z" stroke="#F59019" stroke-linecap="round" stroke-linejoin="round"/>
</svg>
