<svg width="30" height="40" viewBox="0 0 30 40" fill="none" xmlns="http://www.w3.org/2000/svg">
<ellipse cx="15.4109" cy="3.7037" rx="3.08219" ry="3.7037" fill="#F59019"/>
<path d="M24.9795 20.7407C24.9795 21.5719 24.9086 22.157 24.791 22.5574C24.6739 22.9562 24.5267 23.1196 24.4102 23.1912C24.2942 23.2625 24.1164 23.2996 23.8136 23.245C23.5076 23.1898 23.1332 23.0514 22.6786 22.8431C22.3003 22.6696 21.8916 22.4598 21.4439 22.23C21.3566 22.1852 21.2678 22.1396 21.1775 22.0934C20.6294 21.813 20.0335 21.5138 19.4034 21.2408C18.1456 20.6956 16.7217 20.2407 15.2055 20.2407C13.6892 20.2407 12.2654 20.6956 11.0076 21.2408C10.3775 21.5138 9.78154 21.813 9.23347 22.0934C9.14314 22.1396 9.05437 22.1852 8.96708 22.23C8.51933 22.4598 8.11069 22.6696 7.73234 22.8431C7.27781 23.0514 6.90337 23.1898 6.59742 23.245C6.29461 23.2996 6.11676 23.2625 6.00075 23.1912C5.88431 23.1196 5.73708 22.9562 5.62 22.5574C5.50243 22.157 5.43152 21.5719 5.43152 20.7407C5.43152 14.1086 9.88954 8.89502 15.2055 8.89502C20.5214 8.89502 24.9795 14.1086 24.9795 20.7407Z" stroke="#F59019"/>
<path d="M5.13699 29.5698L5.80764 32.0501L5.90755 32.4196H6.29031H8.68958L6.67427 34.1791L6.43887 34.3846L6.52044 34.6863L7.24348 37.3603L5.46582 35.8083L5.13699 35.5212L4.80815 35.8083L3.03049 37.3603L3.75353 34.6863L3.8351 34.3846L3.5997 34.1791L1.58439 32.4196H3.98366H4.36642L4.46633 32.0501L5.13699 29.5698Z" stroke="#F59019"/>
<path d="M24.8631 29.5698L25.5337 32.0501L25.6336 32.4196H26.0164H28.4157L26.4003 34.1791L26.1649 34.3846L26.2465 34.6863L26.9696 37.3603L25.1919 35.8083L24.8631 35.5212L24.5342 35.8083L22.7566 37.3603L23.4796 34.6863L23.5612 34.3846L23.3258 34.1791L21.3105 32.4196H23.7097H24.0925L24.1924 32.0501L24.8631 29.5698Z" stroke="#F59019"/>
<path d="M15 26.607L15.6707 29.0872L15.7706 29.4567H16.1533H18.5526L16.5373 31.2162L16.3019 31.4217L16.3835 31.7234L17.1065 34.3974L15.3289 32.8454L15 32.5583L14.6712 32.8454L12.8935 34.3974L13.6166 31.7234L13.6981 31.4217L13.4627 31.2162L11.4474 29.4567H13.8467H14.2295L14.3294 29.0872L15 26.607Z" stroke="#F59019"/>
</svg>
