<svg width="25" height="37" viewBox="0 0 25 37" fill="none" xmlns="http://www.w3.org/2000/svg">
<mask id="path-1-inside-1" fill="white">
<path fill-rule="evenodd" clip-rule="evenodd" d="M24.6667 12.3333C24.6667 14.6566 24.0243 16.8298 22.9074 18.6851L12.3333 37L1.75922 18.6851C0.642384 16.8298 0 14.6566 0 12.3333C0 5.52182 5.52182 0 12.3333 0C19.1448 0 24.6667 5.52182 24.6667 12.3333ZM12.3333 16.5268C15.0579 16.5268 17.2667 14.3181 17.2667 11.5935C17.2667 8.86889 15.0579 6.66016 12.3333 6.66016C9.60872 6.66016 7.39999 8.86889 7.39999 11.5935C7.39999 14.3181 9.60872 16.5268 12.3333 16.5268Z"/>
</mask>
<path d="M22.9074 18.6851L22.0507 18.1694L22.046 18.1772L22.0414 18.1851L22.9074 18.6851ZM12.3333 37L11.4673 37.5L12.3333 39L13.1994 37.5L12.3333 37ZM1.75922 18.6851L2.62525 18.1851L2.62068 18.1772L2.61597 18.1694L1.75922 18.6851ZM23.7642 19.2008C24.9721 17.1942 25.6667 14.8434 25.6667 12.3333H23.6667C23.6667 14.4698 23.0764 16.4654 22.0507 18.1694L23.7642 19.2008ZM13.1994 37.5L23.7735 19.1851L22.0414 18.1851L11.4673 36.5L13.1994 37.5ZM0.893198 19.1851L11.4673 37.5L13.1994 36.5L2.62525 18.1851L0.893198 19.1851ZM-1 12.3333C-1 14.8434 -0.30546 17.1942 0.902481 19.2008L2.61597 18.1694C1.59023 16.4654 1 14.4698 1 12.3333H-1ZM12.3333 -1C4.96954 -1 -1 4.96954 -1 12.3333H1C1 6.07411 6.07411 1 12.3333 1V-1ZM25.6667 12.3333C25.6667 4.96954 19.6971 -1 12.3333 -1V1C18.5926 1 23.6667 6.07411 23.6667 12.3333H25.6667ZM16.2667 11.5935C16.2667 13.7658 14.5056 15.5268 12.3333 15.5268V17.5268C15.6102 17.5268 18.2667 14.8704 18.2667 11.5935H16.2667ZM12.3333 7.66016C14.5056 7.66016 16.2667 9.42117 16.2667 11.5935H18.2667C18.2667 8.3166 15.6102 5.66016 12.3333 5.66016V7.66016ZM8.39999 11.5935C8.39999 9.42117 10.161 7.66016 12.3333 7.66016V5.66016C9.05644 5.66016 6.39999 8.3166 6.39999 11.5935H8.39999ZM12.3333 15.5268C10.161 15.5268 8.39999 13.7658 8.39999 11.5935H6.39999C6.39999 14.8704 9.05644 17.5268 12.3333 17.5268V15.5268Z" fill="#F59019" mask="url(#path-1-inside-1)"/>
</svg>
