<svg width="50" height="50" viewBox="0 0 50 50" fill="none" xmlns="http://www.w3.org/2000/svg">
<path d="M36.1628 15.6126L29.9893 21.7856L29.9893 29.5831L22.1913 29.5831L15.563 36.2109L36.6177 36.2109L36.6177 16.0675" stroke="#2759AB" stroke-linecap="round" stroke-linejoin="round"/>
<path d="M39.4727 18.828L33.2992 25.001L33.2992 32.7985L25.5012 32.7985L18.8728 39.4263L39.9275 39.4263L39.9275 19.2829" stroke="#F59019" stroke-linecap="round" stroke-linejoin="round"/>
<path d="M13.8956 34.4327L20.069 28.2597L20.069 20.4622L27.867 20.4622L34.4954 13.8344L13.4407 13.8344L13.4407 33.9778" stroke="#2759AB" stroke-linecap="round" stroke-linejoin="round"/>
<path d="M10.5273 31.185L16.7008 25.012L16.7008 17.2146L24.4988 17.2146L31.1272 10.5867L10.0725 10.5867L10.0725 30.7302" stroke="#F59019" stroke-linecap="round" stroke-linejoin="round"/>
<rect x="22.179" y="22.4848" width="5.51404" height="5.51364" rx="2.75682" fill="#F59019"/>
</svg>
