<svg width="204" height="207" viewBox="0 0 204 207" fill="none" xmlns="http://www.w3.org/2000/svg">
<path fill-rule="evenodd" clip-rule="evenodd" d="M108.006 3.34744V95.7454L174.718 33.7629C192.727 52.1442 203.832 77.3175 203.832 105.084C203.832 161.371 158.202 207 101.916 207C45.6293 207 0 161.371 0 105.084C0 48.7977 45.6293 3.16846 101.916 3.16846C103.961 3.16846 105.991 3.22868 108.006 3.34744Z" fill="#F59019"/>
<path d="M113.005 85.5459V0.440781C113.005 0.440781 152.208 -3.59264 143.633 12.7427C135.057 29.0781 174.26 25.0446 174.26 25.0446L113.005 85.5459Z" fill="#2759AB"/>
<path d="M98.6707 152.121C98.1941 152.625 97.6375 152.876 97.0007 152.876C96.2507 152.876 95.6531 152.615 95.2078 152.091C94.7625 151.564 94.5398 150.873 94.5398 150.017C94.5398 149.455 94.6531 148.945 94.8796 148.488C95.1062 148.031 95.4285 147.675 95.8464 147.421C96.2644 147.167 96.7488 147.041 97.2996 147.041C98.1589 147.041 98.8406 147.361 99.3445 148.001C99.8484 148.642 100.1 149.5 100.1 150.574V150.972C100.1 152.511 99.7527 153.685 99.0574 154.494C98.3621 155.302 97.325 155.712 95.946 155.724H95.7761V154.546H95.9812C96.821 154.535 97.4656 154.333 97.9148 153.943C98.364 153.548 98.616 152.941 98.6707 152.121ZM97.2996 151.763C97.5847 151.763 97.8523 151.681 98.1023 151.517C98.3523 151.353 98.5457 151.126 98.6824 150.837V150.281C98.6824 149.652 98.5535 149.146 98.2957 148.763C98.0378 148.38 97.7039 148.189 97.2937 148.189C96.8835 148.189 96.5554 148.359 96.3093 148.699C96.0671 149.035 95.946 149.46 95.946 149.976C95.946 150.511 96.0691 150.943 96.3152 151.271C96.5613 151.599 96.8894 151.763 97.2996 151.763ZM107.614 152.097C107.614 153.324 107.384 154.25 106.923 154.875C106.466 155.496 105.769 155.806 104.831 155.806C103.909 155.806 103.214 155.503 102.745 154.898C102.28 154.289 102.042 153.388 102.03 152.197V150.72C102.03 149.494 102.259 148.574 102.716 147.96C103.177 147.347 103.878 147.041 104.819 147.041C105.753 147.041 106.448 147.339 106.905 147.937C107.366 148.535 107.603 149.429 107.614 150.621V152.097ZM106.191 150.503C106.191 149.703 106.081 149.117 105.862 148.746C105.644 148.371 105.296 148.183 104.819 148.183C104.355 148.183 104.013 148.361 103.794 148.716C103.575 149.068 103.46 149.619 103.448 150.369V152.302C103.448 153.099 103.56 153.693 103.782 154.083C104.005 154.474 104.355 154.669 104.831 154.669C105.288 154.669 105.626 154.49 105.845 154.13C106.064 153.767 106.179 153.201 106.191 152.431V150.503ZM109.416 148.798C109.416 148.283 109.582 147.861 109.914 147.533C110.246 147.201 110.681 147.035 111.22 147.035C111.767 147.035 112.205 147.201 112.533 147.533C112.865 147.861 113.031 148.292 113.031 148.828V149.25C113.031 149.761 112.865 150.181 112.533 150.509C112.205 150.837 111.771 151.001 111.232 151.001C110.705 151.001 110.269 150.841 109.925 150.521C109.585 150.197 109.416 149.761 109.416 149.214V148.798ZM110.412 149.25C110.412 149.519 110.486 149.738 110.634 149.906C110.787 150.07 110.986 150.152 111.232 150.152C111.474 150.152 111.669 150.07 111.818 149.906C111.966 149.738 112.041 149.511 112.041 149.226V148.798C112.041 148.529 111.964 148.31 111.812 148.142C111.664 147.974 111.466 147.89 111.22 147.89C110.974 147.89 110.777 147.976 110.628 148.148C110.484 148.316 110.412 148.539 110.412 148.816V149.25ZM113.517 153.597C113.517 153.074 113.687 152.65 114.027 152.326C114.367 152.001 114.8 151.839 115.328 151.839C115.859 151.839 116.293 152.001 116.628 152.326C116.968 152.65 117.138 153.087 117.138 153.638V154.054C117.138 154.562 116.974 154.982 116.646 155.314C116.322 155.642 115.886 155.806 115.339 155.806C114.793 155.806 114.351 155.644 114.015 155.32C113.683 154.992 113.517 154.56 113.517 154.025V153.597ZM114.513 154.054C114.513 154.32 114.589 154.539 114.742 154.71C114.898 154.878 115.097 154.962 115.339 154.962C115.589 154.962 115.785 154.882 115.925 154.722C116.07 154.558 116.142 154.33 116.142 154.037V153.597C116.142 153.324 116.066 153.105 115.914 152.941C115.761 152.777 115.566 152.695 115.328 152.695C115.085 152.695 114.888 152.777 114.736 152.941C114.587 153.105 114.513 153.332 114.513 153.621V154.054ZM111.525 155.05L110.793 154.628L114.959 147.96L115.691 148.382L111.525 155.05Z" fill="white"/>
<path d="M125.948 43.7397H124.53V36.8901L122.438 37.605V36.4038L125.767 35.1792H125.948V43.7397ZM135.074 40.1479C135.074 41.3745 134.843 42.3003 134.382 42.9253C133.925 43.5464 133.228 43.8569 132.29 43.8569C131.369 43.8569 130.673 43.5542 130.204 42.9487C129.74 42.3394 129.501 41.439 129.49 40.2476V38.771C129.49 37.5444 129.718 36.6245 130.175 36.0112C130.636 35.3979 131.337 35.0913 132.279 35.0913C133.212 35.0913 133.908 35.3901 134.365 35.9878C134.826 36.5854 135.062 37.48 135.074 38.6714V40.1479ZM133.65 38.5542C133.65 37.7534 133.54 37.1675 133.322 36.7964C133.103 36.4214 132.755 36.2339 132.279 36.2339C131.814 36.2339 131.472 36.4116 131.253 36.7671C131.035 37.1187 130.919 37.6694 130.908 38.4194V40.353C130.908 41.1499 131.019 41.7437 131.242 42.1343C131.464 42.5249 131.814 42.7202 132.29 42.7202C132.747 42.7202 133.085 42.5405 133.304 42.1812C133.523 41.8179 133.638 41.2515 133.65 40.4819V38.5542ZM136.875 36.8491C136.875 36.3335 137.041 35.9116 137.373 35.5835C137.705 35.2515 138.14 35.0854 138.679 35.0854C139.226 35.0854 139.664 35.2515 139.992 35.5835C140.324 35.9116 140.49 36.3433 140.49 36.8784V37.3003C140.49 37.812 140.324 38.2319 139.992 38.5601C139.664 38.8882 139.23 39.0522 138.691 39.0522C138.164 39.0522 137.728 38.8921 137.385 38.5718C137.045 38.2476 136.875 37.812 136.875 37.2651V36.8491ZM137.871 37.3003C137.871 37.5698 137.945 37.7886 138.094 37.9565C138.246 38.1206 138.445 38.2026 138.691 38.2026C138.933 38.2026 139.129 38.1206 139.277 37.9565C139.426 37.7886 139.5 37.562 139.5 37.2769V36.8491C139.5 36.5796 139.424 36.3608 139.271 36.1929C139.123 36.0249 138.926 35.9409 138.679 35.9409C138.433 35.9409 138.236 36.0269 138.088 36.1987C137.943 36.3667 137.871 36.5894 137.871 36.8667V37.3003ZM140.976 41.6479C140.976 41.1245 141.146 40.7007 141.486 40.3765C141.826 40.0522 142.26 39.8901 142.787 39.8901C143.318 39.8901 143.752 40.0522 144.088 40.3765C144.428 40.7007 144.597 41.1382 144.597 41.689V42.105C144.597 42.6128 144.433 43.0327 144.105 43.3647C143.781 43.6929 143.346 43.8569 142.799 43.8569C142.252 43.8569 141.81 43.6948 141.474 43.3706C141.142 43.0425 140.976 42.6108 140.976 42.0757V41.6479ZM141.972 42.105C141.972 42.3706 142.049 42.5894 142.201 42.7612C142.357 42.9292 142.556 43.0132 142.799 43.0132C143.049 43.0132 143.244 42.9331 143.385 42.7729C143.529 42.6089 143.601 42.3804 143.601 42.0874V41.6479C143.601 41.3745 143.525 41.1558 143.373 40.9917C143.221 40.8276 143.025 40.7456 142.787 40.7456C142.545 40.7456 142.347 40.8276 142.195 40.9917C142.047 41.1558 141.972 41.3823 141.972 41.6714V42.105ZM138.984 43.1011L138.252 42.6792L142.418 36.0112L143.15 36.4331L138.984 43.1011Z" fill="white"/>
</svg>
