<svg width="106" height="84" viewBox="0 0 106 84" fill="none" xmlns="http://www.w3.org/2000/svg">
<path fill-rule="evenodd" clip-rule="evenodd" d="M13.9451 39.3889C13.9451 19.4154 29.4063 3.05301 49.0134 1.61731L50.3885 6.54553C32.8964 7.29448 18.9451 21.7124 18.9451 39.3889C18.9451 48.7876 22.8893 57.265 29.2127 63.2564L26.2458 66.5876L25.8607 66.968C18.525 60.0609 13.9451 50.2597 13.9451 39.3889ZM52.7158 77.2524C73.2187 76.776 89.6929 60.0063 89.6929 39.3889C89.6929 31.4058 87.223 23.9996 83.0058 17.8928L79.5672 21.7536C82.8127 26.8495 84.6929 32.8996 84.6929 39.3889C84.6929 57.5447 69.9748 72.2628 51.819 72.2628C51.683 72.2628 51.5471 72.262 51.4115 72.2603L52.7158 77.2524Z" fill="#FFD800"/>
<path d="M49.0134 1.61731L49.495 1.48293L49.385 1.08876L48.9769 1.11864L49.0134 1.61731ZM50.3885 6.54553L50.4098 7.04508L51.0394 7.01812L50.8701 6.41116L50.3885 6.54553ZM29.2127 63.2564L29.5861 63.5889L29.9086 63.2269L29.5566 62.8934L29.2127 63.2564ZM26.2458 66.5876L26.5972 66.9433L26.6086 66.9321L26.6192 66.9201L26.2458 66.5876ZM25.8607 66.968L25.5179 67.332L25.8689 67.6626L26.212 67.3237L25.8607 66.968ZM52.7158 77.2524L52.2321 77.3788L52.332 77.7615L52.7274 77.7523L52.7158 77.2524ZM83.0058 17.8928L83.4172 17.6086L83.0556 17.085L82.6324 17.5602L83.0058 17.8928ZM79.5672 21.7536L79.1938 21.421L78.9424 21.7033L79.1455 22.0222L79.5672 21.7536ZM51.4115 72.2603L51.4176 71.7604L50.762 71.7524L50.9278 72.3867L51.4115 72.2603ZM48.9769 1.11864C29.1105 2.57333 13.4451 19.1515 13.4451 39.3889H14.4451C14.4451 19.6793 29.7022 3.53268 49.0499 2.11597L48.9769 1.11864ZM50.8701 6.41116L49.495 1.48293L48.5318 1.75169L49.9068 6.67991L50.8701 6.41116ZM19.4451 39.3889C19.4451 21.9814 33.1842 7.78261 50.4098 7.04508L50.3671 6.04599C32.6086 6.80634 18.4451 21.4435 18.4451 39.3889H19.4451ZM29.5566 62.8934C23.3287 56.9925 19.4451 48.6447 19.4451 39.3889H18.4451C18.4451 48.9305 22.4499 57.5375 28.8688 63.6193L29.5566 62.8934ZM26.6192 66.9201L29.5861 63.5889L28.8393 62.9238L25.8725 66.2551L26.6192 66.9201ZM26.212 67.3237L26.5972 66.9433L25.8945 66.2318L25.5093 66.6122L26.212 67.3237ZM13.4451 39.3889C13.4451 50.4032 18.0861 60.3344 25.5179 67.332L26.2034 66.604C18.964 59.7874 14.4451 50.1163 14.4451 39.3889H13.4451ZM89.1929 39.3889C89.1929 59.7341 72.9362 76.2824 52.7042 76.7525L52.7274 77.7523C73.5012 77.2695 90.1929 60.2786 90.1929 39.3889H89.1929ZM82.5943 18.1769C86.7558 24.2029 89.1929 31.5105 89.1929 39.3889H90.1929C90.1929 31.3011 87.6903 23.7963 83.4172 17.6086L82.5943 18.1769ZM79.9406 22.0861L83.3791 18.2253L82.6324 17.5602L79.1938 21.421L79.9406 22.0861ZM85.1929 39.3889C85.1929 32.8017 83.284 26.6588 79.9889 21.485L79.1455 22.0222C82.3413 27.0402 84.1929 32.9975 84.1929 39.3889H85.1929ZM51.819 72.7628C70.2509 72.7628 85.1929 57.8208 85.1929 39.3889H84.1929C84.1929 57.2685 69.6986 71.7628 51.819 71.7628V72.7628ZM51.4054 72.7603C51.5431 72.762 51.681 72.7628 51.819 72.7628V71.7628C51.685 71.7628 51.5512 71.762 51.4176 71.7604L51.4054 72.7603ZM50.9278 72.3867L52.2321 77.3788L53.1996 77.126L51.8953 72.1339L50.9278 72.3867Z" fill="#FFD800"/>
<path d="M71.5214 39.2371L78.163 14.4001L103 21.0417" stroke="#FFD800" stroke-width="5"/>
<path d="M33.6507 44.5258L28.1043 69.6301L3 64.0836" stroke="#FFD800" stroke-width="5"/>
<circle cx="59.3938" cy="3.78739" r="3.78739" fill="#FFD800"/>
<circle cx="43.4867" cy="73.4754" r="3.78739" fill="#FFD800"/>
</svg>
