<svg width="116" height="101" viewBox="0 0 116 101" fill="none" xmlns="http://www.w3.org/2000/svg">
<path fill-rule="evenodd" clip-rule="evenodd" d="M36.9168 6.87796V5H38.1681C38.4826 5 38.7944 5.05937 39.0869 5.17499L40.391 5.69039C40.8176 5.85897 41.1896 6.14166 41.4662 6.50751L42.3001 7.61022L42.3118 7.62566L42.3237 7.64091L44.0501 9.85203C44.1464 9.97527 44.2308 10.1073 44.3024 10.2463L45.4157 12.4089C45.4879 12.549 45.5466 12.6957 45.5911 12.8469L46.2614 15.1229C46.329 15.3522 46.3633 15.5901 46.3633 15.8292V18.6249C46.3633 18.9114 46.314 19.1959 46.2176 19.4658L45.547 21.3434L44.1136 24.2948L42.5211 26.9034C42.162 27.4916 41.8857 28.1266 41.7 28.7903L41.2431 30.4235L40.5672 32.2353C40.4695 32.4972 40.3285 32.7409 40.1503 32.9561L38.7034 34.7032C38.2058 35.304 37.805 35.9789 37.5154 36.7033L36.9787 38.0462C36.7419 38.6385 36.6203 39.2705 36.6203 39.9084V41.5622C36.6203 43.3134 37.9584 44.752 39.668 44.9112L41.3277 45.4816C42.775 45.979 44.3397 46.0218 45.812 45.6041L47.8686 45.0208C48.0905 44.9578 48.3201 44.9259 48.5508 44.9259H51.887H59.8158H59.9424L60.0683 44.9131L68.809 44.0256C69.476 44.0359 70.112 44.3124 70.5746 44.7946L70.7746 45.0032C70.8876 45.121 70.9887 45.2495 71.0767 45.387L71.8415 46.583C71.9461 46.7464 72.0312 46.9214 72.0952 47.1046L72.63 48.6337C72.7228 48.899 72.7702 49.178 72.7702 49.459V50.777C72.7702 50.9943 72.7419 51.2107 72.6859 51.4207L72.1848 53.3014H77.3592L77.5173 52.7081C77.6852 52.0781 77.7702 51.4289 77.7702 50.777V49.459C77.7702 48.6159 77.628 47.7789 77.3497 46.983L76.8149 45.4539C76.6228 44.9046 76.3674 44.3794 76.0538 43.8891L75.2889 42.6931C75.0252 42.2807 74.7217 41.8952 74.3829 41.5419L74.1828 41.3333C72.7684 39.8589 70.8136 39.0253 68.7704 39.0253H68.6853H68.5587L68.4327 39.0381L59.6892 39.9259H51.887H48.5508C47.8587 39.9259 47.1699 40.0217 46.5041 40.2105L44.4475 40.7939C43.9568 40.9331 43.4352 40.9189 42.9528 40.7531L41.6203 40.2952V39.9084C41.6203 39.9062 41.6207 39.904 41.6215 39.9019L42.1583 38.5591C42.2548 38.3176 42.3884 38.0926 42.5543 37.8923L44.0011 36.1453C44.536 35.4995 44.9587 34.7686 45.2518 33.983L45.9645 32.0724L46.0014 31.9737L46.0298 31.8722L46.5151 30.1376C46.577 29.9163 46.6691 29.7047 46.7888 29.5086L48.4438 26.7975L48.5063 26.6951L48.5587 26.5871L50.1042 23.405L50.1638 23.2823L50.2097 23.1538L50.9263 21.1476C51.2155 20.338 51.3633 19.4846 51.3633 18.6249V15.8292C51.3633 15.1119 51.2604 14.3983 51.0577 13.7103L50.3874 11.4343C50.2538 10.9807 50.0776 10.5407 49.8612 10.1203L48.7479 7.9577C48.5332 7.54063 48.2798 7.14462 47.9911 6.77488L46.2765 4.57903L45.4543 3.49174C44.6244 2.39419 43.5085 1.54612 42.2288 1.04037L40.9247 0.524973C40.047 0.178108 39.1118 0 38.1681 0H36.8578C35.6055 0 34.4 0.475483 33.4849 1.33032C32.4846 2.26472 31.9167 3.5722 31.9167 4.94102V6.87796C31.9167 7.01942 31.9047 7.16063 31.8809 7.30006L30.9489 12.7403L29.946 17.968C29.8795 18.3147 29.7403 18.6434 29.5375 18.9325L27.3261 22.0857C27.2159 22.2428 27.088 22.3866 26.945 22.5144L23.008 26.0322L22.9794 26.0578L22.9516 26.0842L18.7185 30.1068L18.6145 30.2056L18.5225 30.3156L14.6908 34.899C14.3579 35.2973 14.0666 35.7294 13.8221 36.1901C12.9411 37.8504 11.4003 40.7672 11.1195 41.3693C11.1231 41.3617 11.1178 41.3708 11.1013 41.3988C11.0616 41.4666 10.957 41.6449 10.7555 41.9664C10.5099 42.3584 10.1902 42.8542 9.8396 43.3906C9.16489 44.4229 8.39774 45.5719 7.87579 46.3466L3.81294 51.4175L2.33278 52.8245C0.84557 54.2381 0 56.1963 0 58.2545V58.3311V58.4079V58.4849V58.5621V58.6395V58.7171V58.7949V58.8729V58.9511V59.0295V59.108V59.1868V59.2657V59.3448V59.4241V59.5036V59.5833V59.6632V59.7432V59.8234V59.9038V59.9844V60.0651V60.146V60.2271V60.3083V60.3897V60.4713V60.553V60.6349V60.717V60.7992V60.8815V60.9641V61.0468V61.1296V61.2126V61.2957V61.379V61.4625V61.546V61.6298V61.7136V61.7976V61.8818V61.9661V62.0505V62.1351V62.2198V62.3046V62.3896V62.4747V62.5599V62.6452V62.7307V62.8163V62.902V62.9878V63.0738V63.1599V63.2461V63.3324V63.4188V63.5053V63.592V63.6787V63.7656V63.8526V63.9396V64.0268V64.1141V64.2014V64.2889V64.3765V64.4642V64.5519V64.6398V64.7277V64.8158V64.9039V64.9921V65.0804V65.1688V65.2573V65.3458V65.4344V65.5231V65.6119V65.7008V65.7897V65.8787V65.9678V66.0569V66.1461V66.2354V66.3248V66.4142V66.5036V66.5932V66.6828V66.7724V66.8621V66.9519V67.0417V67.1316V67.2215V67.3114V67.4014V67.4915V67.5816V67.6717V67.7619V67.8521V67.9424V68.0327V68.123V68.2134V68.3038V68.3942V68.4847V68.5752V68.6657V68.7563V68.8468V68.9374V69.028V69.1187V69.2093V69.3V69.3907V69.4814V69.5721V69.6628V69.7535V69.8442V69.935V70.0257V70.1165V70.2072V70.298V70.3887V70.4795V70.5702V70.6609V70.7517V70.8424V70.9331V71.0238V71.1145V71.2052V71.2958V71.3864V71.4771V71.5677V71.6582V71.7488V71.8393V71.9298V72.0203V72.1108V72.2012V72.2916V72.3819V72.4722V72.5625V72.6527V72.7429V72.8331V72.9232V73.0133V73.1033V73.1933V73.2832V73.3731V73.463V73.5527V73.6425V73.7321V73.8218V73.9113V74.0008V74.0902V74.1796V74.2689V74.3582V74.4473V74.5365V74.6255V74.7144V74.8033V74.8922V74.9809V75.0696V75.1581V75.2466V75.3351V75.4234V75.5117V75.5998V75.6879V75.7759V75.8638V75.9516V76.0393V76.1269V76.2144V76.3018V76.3892V76.4764V76.5635V76.6505V76.7374V76.8242V76.9109V76.9975V77.084V77.1703V77.2566V77.3427V77.4287V77.5146V77.6004V77.686V77.7715V77.8569V77.9422V78.0274V78.1124V78.1973V78.282V78.3666V78.4511V78.5355V78.6197V78.7038V78.7877V78.8715V78.9551V79.0386V79.122V79.2052V79.2882V79.3712V79.4539V79.5365V79.6189V79.7012V79.7834V79.8653V79.9471V80.0288V80.1103V80.1916V80.2727V80.3537V80.4345V80.5151V80.5956V80.6759V80.756V80.8359V80.9157V80.9952V81.0746V81.1538V81.2329V81.3117V81.3903V81.4688V81.5471V81.6251V81.703V81.7807V81.8582V81.9355V82.0126V82.0895V82.1662V82.2426V82.3189V82.395V82.4708V82.5465V82.6219V82.6972V82.7722V82.847V82.9216V82.9959V83.0701V83.144V83.2177V83.2911V83.3644V83.4374V83.5102V83.5827V83.6551V83.7272V83.799V83.8706V83.942V84.0132V84.0841V84.1547V84.2251V84.2953V84.3652V84.4349V84.5043V84.5735V84.6424V84.7111V84.7795V84.8477V84.9156V84.9832V85.0506V85.1177V85.1845V85.2511V85.3174V85.3835V85.4492V85.5148V85.58V85.6449V85.7096V85.774V85.8381V85.902V85.9655V86.0288V86.0918V86.1545V86.2169V86.2791V86.3409V86.4024V86.4637V86.5246V86.5853V86.6457V86.7057V86.7655V86.8249V86.8841V86.9429V87.0015V87.0597V87.1176V87.1752V87.2325V87.2895V87.3462V87.4025V87.4585V87.5143V87.5696V87.6247V87.6795V87.7339V87.7879V87.8417V87.8951V87.9482V88.001V88.0534V88.1055V88.1572V88.2087V88.2597V88.3105V88.3608V88.4109V88.4606V88.5099V88.5589V88.6076V88.6558V88.7038V88.7514V88.7986V88.8454V88.892V88.9381V88.9839V89.0293V89.0743V89.119V89.1633V89.2073V89.2508V89.294V89.3369V89.3793V89.4214V89.4631V89.5044V89.5453V89.5859V89.626V89.6658V89.7052V89.7442V89.7828V89.821V89.8588V89.8962V89.9333V89.9699V90.0061V90.0419V90.0774V90.1124V90.147V90.1812V90.215V90.2484V90.2814V90.3139V90.3461V90.3778V90.4091V90.44V90.4705V90.5005V90.5302V90.5594V90.5882V90.6165V90.6444V90.6719V90.699V90.7256V90.7518V90.7776V90.8029V90.8278V90.8522V90.8762V90.8998V90.9229V90.9455V90.9677V90.9895V91.0108V91.0317V91.0521V91.072V91.0915V91.1105V91.1291V91.1472V91.1649V91.182V91.1988V91.215V91.2308V91.2461V91.2609V91.2753V91.2892V91.3026V91.3155V91.328V91.34V91.3515V91.3576V91.3625V91.3688V91.373V91.3794V91.383V91.3895V91.3926V91.399V91.4017V91.408V91.4102V91.4165V91.4183V91.4244V91.4259V91.4318V91.433V91.4386V91.4396V91.4449V91.4457V91.4507V91.4513V91.4559V91.4564V91.4606V91.4609V91.4648V91.465V91.4685V91.4686V91.4716V91.4717V91.4742V91.4763V91.4778V91.4789V91.4794H4.99599C4.95112 92.1573 4.53861 92.6461 4.20123 92.8619C4.08983 92.9331 4.00909 92.9624 3.98533 92.9699C3.9804 92.9712 3.97806 92.972 3.97813 92.972C3.97817 92.972 3.9791 92.9718 3.98087 92.9713C3.98201 92.971 3.9835 92.9705 3.98533 92.9699C4.0022 92.9656 4.04945 92.955 4.13505 92.9442C4.62136 92.883 5.49244 92.9134 6.70295 93.0759C9.00474 93.3848 11.8274 94.0683 13.7805 94.6255L17.8252 96.2576L17.959 96.3116L18.098 96.3498L22.4327 97.5416L27.9009 99.2073C28.3121 99.3325 28.7332 99.4222 29.1597 99.4753L36.93 100.443L37.0838 100.462H37.2389H42.6143H53.0293H58.6893C59.8018 100.462 60.9004 100.214 61.9055 99.7373L62.6505 99.3836C63.0373 99.2 63.4077 98.9836 63.7575 98.7368L64.6516 98.1062C65.9284 97.2055 66.892 95.9285 67.4079 94.4535L67.7266 93.5423C67.7799 93.3897 67.848 93.2427 67.9297 93.1032L68.8884 91.4679C69.1614 91.0022 69.3833 90.5085 69.5503 89.9952L69.9774 88.6823C70.1473 88.16 70.2591 87.6213 70.3113 87.0759H65.2412C65.2353 87.0958 65.2291 87.1156 65.2227 87.1354L64.7956 88.4483C64.7399 88.6194 64.6659 88.784 64.5749 88.9392L63.6162 90.5746C63.371 90.9929 63.167 91.4339 63.0069 91.8916L62.6882 92.8029C62.5163 93.2945 62.195 93.7202 61.7694 94.0204L60.8754 94.6511C60.7588 94.7334 60.6353 94.8055 60.5064 94.8667L59.7613 95.2203C59.4263 95.3794 59.0601 95.4619 58.6893 95.4619H53.0293H42.6143H37.3939L29.7775 94.5136C29.6353 94.4959 29.4949 94.466 29.3579 94.4242L23.8568 92.7485L23.824 92.7386L23.791 92.7295L19.5625 91.5669L15.5303 89.9398L15.4105 89.8915L15.2865 89.8558C13.211 89.2582 10.0572 88.4813 7.36812 88.1203C6.58633 88.0154 5.77334 87.9352 5 87.9186V87.8951V87.8417V87.7879V87.7339V87.6795V87.6247V87.5696V87.5143V87.4585V87.4025V87.3462V87.2895V87.2325V87.1752V87.1176V87.0597V87.0015V86.9429V86.8841V86.8249V86.7655V86.7057V86.6457V86.5853V86.5246V86.4637V86.4024V86.3409V86.2791V86.2169V86.1545V86.0918V86.0288V85.9655V85.902V85.8381V85.774V85.7096V85.6449V85.58V85.5148V85.4492V85.3835V85.3174V85.2511V85.1845V85.1177V85.0506V84.9832V84.9156V84.8477V84.7795V84.7111V84.6424V84.5735V84.5043V84.4349V84.3652V84.2953V84.2251V84.1547V84.0841V84.0132V83.942V83.8706V83.799V83.7272V83.6551V83.5827V83.5102V83.4374V83.3644V83.2911V83.2177V83.144V83.0701V82.9959V82.9216V82.847V82.7722V82.6972V82.6219V82.5465V82.4708V82.395V82.3189V82.2426V82.1662V82.0895V82.0126V81.9355V81.8582V81.7807V81.703V81.6251V81.5471V81.4688V81.3903V81.3117V81.2329V81.1538V81.0746V80.9952V80.9157V80.8359V80.756V80.6759V80.5956V80.5151V80.4345V80.3537V80.2727V80.1916V80.1103V80.0288V79.9471V79.8653V79.7834V79.7012V79.6189V79.5365V79.4539V79.3712V79.2882V79.2052V79.122V79.0386V78.9551V78.8715V78.7877V78.7038V78.6197V78.5355V78.4511V78.3666V78.282V78.1973V78.1124V78.0274V77.9422V77.8569V77.7715V77.686V77.6004V77.5146V77.4287V77.3427V77.2566V77.1703V77.084V76.9975V76.9109V76.8242V76.7374V76.6505V76.5635V76.4764V76.3892V76.3018V76.2144V76.1269V76.0393V75.9516V75.8638V75.7759V75.6879V75.5998V75.5117V75.4234V75.3351V75.2466V75.1581V75.0696V74.9809V74.8922V74.8033V74.7144V74.6255V74.5365V74.4473V74.3582V74.2689V74.1796V74.0902V74.0008V73.9113V73.8218V73.7321V73.6425V73.5527V73.463V73.3731V73.2832V73.1933V73.1033V73.0133V72.9232V72.8331V72.7429V72.6527V72.5625V72.4722V72.3819V72.2916V72.2012V72.1108V72.0203V71.9298V71.8393V71.7488V71.6582V71.5677V71.4771V71.3864V71.2958V71.2052V71.1145V71.0238V70.9331V70.8424V70.7517V70.6609V70.5702V70.4795V70.3887V70.298V70.2072V70.1165V70.0257V69.935V69.8442V69.7535V69.6628V69.5721V69.4814V69.3907V69.3V69.2093V69.1187V69.028V68.9374V68.8468V68.7563V68.6657V68.5752V68.4847V68.3942V68.3038V68.2134V68.123V68.0327V67.9424V67.8521V67.7619V67.6717V67.5816V67.4915V67.4014V67.3114V67.2215V67.1316V67.0417V66.9519V66.8621V66.7724V66.6828V66.5932V66.5036V66.4142V66.3248V66.2354V66.1461V66.0569V65.9678V65.8787V65.7897V65.7008V65.6119V65.5231V65.4344V65.3458V65.2573V65.1688V65.0804V64.9921V64.9039V64.8158V64.7277V64.6398V64.5519V64.4642V64.3765V64.2889V64.2014V64.1141V64.0268V63.9396V63.8526V63.7656V63.6787V63.592V63.5053V63.4188V63.3324V63.2461V63.1599V63.0738V62.9878V62.902V62.8163V62.7307V62.6452V62.5599V62.4747V62.3896V62.3046V62.2198V62.1351V62.0505V61.9661V61.8818V61.7976V61.7136V61.6298V61.546V61.4625V61.379V61.2957V61.2126V61.1296V61.0468V60.9641V60.8815V60.7992V60.717V60.6349V60.553V60.4713V60.3897V60.3083V60.2271V60.146V60.0651V59.9844V59.9038V59.8234V59.7432V59.6632V59.5833V59.5036V59.4241V59.3448V59.2657V59.1868V59.108V59.0295V58.9511V58.8729V58.7949V58.7171V58.6395V58.5621V58.4849V58.4079V58.3311V58.2545C5 57.5726 5.27879 56.9226 5.77759 56.4484L7.38049 54.9248L7.50321 54.8081L7.60909 54.676L11.8423 49.3926L11.9065 49.3124L11.964 49.2272C12.4947 48.4402 13.3081 47.2229 14.0249 46.1262C14.3826 45.5788 14.7222 45.0525 14.9925 44.6212C15.2233 44.2528 15.5045 43.7966 15.6511 43.4824C15.8606 43.0331 17.3068 40.2901 18.2388 38.5338C18.3192 38.3824 18.4154 38.2393 18.5269 38.106L22.2666 33.6326L26.3681 29.7351L30.2765 26.2429C30.7056 25.8594 31.0892 25.4279 31.4196 24.9567L33.6311 21.8035C34.2393 20.9363 34.6569 19.9503 34.8564 18.9101L35.8641 13.658L35.8688 13.6335L35.873 13.609L36.8091 8.14427C36.8807 7.72597 36.9168 7.30235 36.9168 6.87796Z" fill="#FFD800"/>
<path d="M49.8818 75.0894C48.5576 76.3901 47.0107 77.0405 45.2412 77.0405C42.9795 77.0405 41.1689 76.2671 39.8095 74.7202C38.4502 73.1616 37.7705 71.064 37.7705 68.4272C37.7705 66.7515 38.1338 65.2163 38.8603 63.8218C39.5986 62.4155 40.624 61.3257 41.9365 60.5522C43.249 59.7671 44.7256 59.3745 46.3662 59.3745C48.0537 59.3745 49.5537 59.7964 50.8662 60.6401C52.1787 61.4839 53.1982 62.6968 53.9248 64.2788C54.6513 65.8608 55.0205 67.6714 55.0322 69.7104V71.5913C55.0322 75.8569 53.9717 79.2085 51.8506 81.646C49.7295 84.0835 46.7236 85.3843 42.833 85.5483L41.5849 85.5659V81.3296L42.7099 81.312C47.1279 81.1128 49.5185 79.0386 49.8818 75.0894ZM46.4892 73.1558C47.3095 73.1558 48.0127 72.9448 48.5986 72.5229C49.1963 72.1011 49.6474 71.5913 49.9521 70.9937V68.9019C49.9521 67.1792 49.624 65.8433 48.9678 64.894C48.3115 63.9448 47.4326 63.4702 46.331 63.4702C45.3115 63.4702 44.4736 63.939 43.8174 64.8765C43.1611 65.8022 42.833 66.9683 42.833 68.3745C42.833 69.769 43.1494 70.9175 43.7822 71.8198C44.4267 72.7104 45.3291 73.1558 46.4892 73.1558ZM74.1537 75.0894C72.8295 76.3901 71.2826 77.0405 69.5131 77.0405C67.2513 77.0405 65.4408 76.2671 64.0814 74.7202C62.722 73.1616 62.0424 71.064 62.0424 68.4272C62.0424 66.7515 62.4056 65.2163 63.1322 63.8218C63.8705 62.4155 64.8959 61.3257 66.2084 60.5522C67.5209 59.7671 68.9974 59.3745 70.6381 59.3745C72.3256 59.3745 73.8256 59.7964 75.1381 60.6401C76.4506 61.4839 77.4701 62.6968 78.1967 64.2788C78.9232 65.8608 79.2924 67.6714 79.3041 69.7104V71.5913C79.3041 75.8569 78.2435 79.2085 76.1224 81.646C74.0013 84.0835 70.9955 85.3843 67.1049 85.5483L65.8568 85.5659V81.3296L66.9818 81.312C71.3998 81.1128 73.7904 79.0386 74.1537 75.0894ZM70.7611 73.1558C71.5814 73.1558 72.2845 72.9448 72.8705 72.5229C73.4681 72.1011 73.9193 71.5913 74.224 70.9937V68.9019C74.224 67.1792 73.8959 65.8433 73.2396 64.894C72.5834 63.9448 71.7045 63.4702 70.6029 63.4702C69.5834 63.4702 68.7455 63.939 68.0892 64.8765C67.433 65.8022 67.1049 66.9683 67.1049 68.3745C67.1049 69.769 67.4213 70.9175 68.0541 71.8198C68.6986 72.7104 69.601 73.1558 70.7611 73.1558ZM86.4724 64.6479C86.4724 63.0776 86.9822 61.8062 88.0017 60.8335C89.0213 59.8491 90.3572 59.3569 92.0095 59.3569C93.6853 59.3569 95.033 59.8433 96.0525 60.8159C97.072 61.7769 97.5818 63.0835 97.5818 64.7358V66.0015C97.5818 67.5835 97.072 68.855 96.0525 69.8159C95.033 70.7769 93.697 71.2573 92.0447 71.2573C90.3806 71.2573 89.033 70.7769 88.0017 69.8159C86.9822 68.8433 86.4724 67.5366 86.4724 65.896V64.6479ZM89.8474 66.0015C89.8474 66.7046 90.0467 67.2729 90.4451 67.7065C90.8553 68.1284 91.3885 68.3394 92.0447 68.3394C92.701 68.3394 93.2224 68.1226 93.6092 67.689C93.9959 67.2554 94.1892 66.6753 94.1892 65.9487V64.6479C94.1892 63.9448 93.9959 63.3765 93.6092 62.9429C93.2224 62.5093 92.6892 62.2925 92.0095 62.2925C91.365 62.2925 90.8435 62.5093 90.4451 62.9429C90.0467 63.3647 89.8474 63.9565 89.8474 64.7183V66.0015ZM98.7068 79.0444C98.7068 77.4624 99.2224 76.1909 100.254 75.23C101.285 74.2573 102.621 73.771 104.262 73.771C105.926 73.771 107.267 74.2515 108.287 75.2124C109.318 76.1616 109.834 77.4741 109.834 79.1499V80.4155C109.834 81.9858 109.33 83.2573 108.322 84.23C107.314 85.1909 105.972 85.6714 104.297 85.6714C102.609 85.6714 101.256 85.1851 100.236 84.2124C99.2166 83.2397 98.7068 81.9507 98.7068 80.3452V79.0444ZM102.082 80.4155C102.082 81.0601 102.293 81.6108 102.715 82.0679C103.137 82.5249 103.664 82.7534 104.297 82.7534C105.726 82.7534 106.441 81.9624 106.441 80.3804V79.0444C106.441 78.3413 106.242 77.7788 105.844 77.3569C105.445 76.9233 104.918 76.7065 104.262 76.7065C103.605 76.7065 103.078 76.9233 102.679 77.3569C102.281 77.7788 102.082 78.3589 102.082 79.0972V80.4155ZM93.0467 83.4038L90.5681 82.0679L103.066 62.064L105.545 63.3999L93.0467 83.4038Z" fill="#FFD800"/>
</svg>
