<svg width="118" height="88" viewBox="0 0 118 88" fill="none" xmlns="http://www.w3.org/2000/svg">
<line x1="36" y1="10.5" x2="68" y2="10.5" stroke="#FFD800" stroke-width="5"/>
<line x1="36" y1="17.5" x2="63" y2="17.5" stroke="#FFD800" stroke-width="5"/>
<mask id="path-3-inside-1" fill="white">
<rect x="26" width="52" height="36" rx="3"/>
</mask>
<rect x="26" width="52" height="36" rx="3" stroke="#FFD800" stroke-width="10" mask="url(#path-3-inside-1)"/>
<path d="M8.56976 85.503L16.0032 77.4454C17.2569 76.0864 19.1583 75.5303 20.9468 75.9994L53.9425 84.654C56.0431 85.205 58.266 85.0572 60.2752 84.2329L78.1189 76.9124C80.8267 75.8015 83.3574 74.3003 85.6305 72.4566L111.075 51.8179C117.278 45.9364 116.529 40.5893 105.942 46.685L78.032 59.8382" stroke="#FFD800" stroke-width="5"/>
<path d="M2 65.6123L7.14689 61.071C7.35054 60.8913 7.57763 60.7401 7.82196 60.6215L29.2689 50.2134C33.0457 48.2256 40.721 45.4988 43.2277 49.2452C43.6161 49.8256 43.5096 50.5744 43.5311 51.2724C43.622 54.2139 48.4174 58.2231 67.7661 56.6297C73.5426 55.6844 82.5168 56.1008 73.1096 65.1123C72.77 65.4376 72.349 65.6786 71.8959 65.8047C61.2032 68.7795 40.7908 72.6458 39.5348 65.6123" stroke="#FFD800" stroke-width="5"/>
<path d="M107.867 45.4011C108.616 40.6959 104.659 39.7551 94.3933 45.4014L65.1996 56.6294" stroke="#FFD800" stroke-width="3"/>
<path d="M95.6765 44.118C96.4251 39.4128 92.4684 38.472 82.2025 44.1183L53.0088 55.3463" stroke="#FFD800" stroke-width="3"/>
<path d="M82.8495 41.81C83.1449 38.9385 79.304 38.9506 70.0527 43.7337L43.3178 54.4987" stroke="#FFD800" stroke-width="3"/>
</svg>
