<svg width="118" height="71" viewBox="0 0 118 71" fill="none" xmlns="http://www.w3.org/2000/svg">
<path d="M0 3H76.0487C77.1533 3 78.0487 3.89543 78.0487 5V55.878C78.0487 56.9826 77.1533 57.878 76.0487 57.878H17.8536C16.7491 57.878 15.8536 56.9826 15.8536 55.878V39.5853" stroke="#FFD800" stroke-width="5"/>
<path d="M81.7072 13.9753H105.215C106.027 13.9753 106.758 14.4666 107.066 15.2185L114.485 33.3676C114.584 33.6079 114.634 33.8649 114.634 34.1244V55.8778C114.634 56.9823 113.739 57.8778 112.634 57.8778H81.7072" stroke="#FFD800" stroke-width="5"/>
<line x1="15.8536" y1="18.5732" x2="52.4389" y2="18.5732" stroke="#FFD800" stroke-width="3"/>
<line x1="15.8536" y1="30.7683" x2="46.3414" y2="30.7683" stroke="#FFD800" stroke-width="3"/>
<circle cx="97.561" cy="57.8782" r="10.6951" fill="white" stroke="#FFD800" stroke-width="3"/>
<circle cx="48.7804" cy="57.8782" r="10.6951" fill="white" stroke="#FFD800" stroke-width="3"/>
</svg>
